<?xml version="1.0" encoding="utf-8"?>
<!-- Generator: Adobe Illustrator 25.0.1, SVG Export Plug-In . SVG Version: 6.00 Build 0)  -->
<svg version="1.1" id="Layer_1" xmlns="http://www.w3.org/2000/svg" xmlns:xlink="http://www.w3.org/1999/xlink" x="0px" y="0px"
	 viewBox="0 0 300 300" style="enable-background:new 0 0 300 300;" xml:space="preserve">
<style type="text/css">
	.st0{fill:#FFFFFF;}
</style>
<g id="XMLID_228_">
	<path id="XMLID_229_" class="st0" d="M40.1,110.3c-25.4,44-9.2,110.8,18.8,151.3c14,20.2,28.2,38.4,47.6,38.4c0.4,0,0.7,0,1.1,0
		c9.1-0.4,15.7-3.2,22.1-5.9c7.2-3,14.6-6.2,26.2-6.2c11,0,18.1,3.1,24.9,6c6.7,2.9,13.6,5.9,23.9,5.7c21.9-0.4,35.3-20,47.1-37.3
		c12.4-18.1,18.6-35.6,20.7-42.3l0.1-0.3c0.4-1.2-0.2-2.5-1.3-3c0,0-0.1-0.1-0.2-0.1c-3.9-1.6-37.6-16.6-38-57.4
		c-0.3-33.2,25.3-50.8,30.5-53.9l0.2-0.1c0.6-0.4,0.9-0.9,1.1-1.6c0.1-0.7,0-1.3-0.4-1.9c-17.7-25.9-44.9-29.8-55.8-30.3
		c-1.6-0.2-3.2-0.2-4.9-0.2c-12.8,0-25.1,4.9-35,8.7c-6.8,2.7-12.7,5-16.8,5c-4.6,0-10.5-2.4-17.4-5.1C125.4,76.2,115,72,104,72
		c-0.3,0-0.5,0-0.8,0C77.6,72.4,53.4,87.1,40.1,110.3z"/>
	<path id="XMLID_230_" class="st0" d="M208.6,0c-15.5,0.6-34.1,10.2-45.2,23.2c-9.4,10.9-18.7,29.2-16.2,47.6c0.2,1.2,1.1,2,2.2,2.1
		c1,0.1,2.1,0.1,3.2,0.1c15.2,0,31.5-8.4,42.7-21.9c11.8-14.3,17.7-32.6,15.9-49C211,0.9,209.9,0,208.6,0z"/>
</g>
</svg>
