<?xml version="1.0" encoding="utf-8"?>
<!-- Generator: Adobe Illustrator 25.0.1, SVG Export Plug-In . SVG Version: 6.00 Build 0)  -->
<svg version="1.1" id="Capa_1" xmlns="http://www.w3.org/2000/svg" xmlns:xlink="http://www.w3.org/1999/xlink" x="0px" y="0px"
	 viewBox="0 0 300 300" style="enable-background:new 0 0 300 300;" xml:space="preserve">
<style type="text/css">
	.st0{fill:#343BAA;}
</style>
<g>
	<path class="st0" d="M93.6,11C75,18.5,58.3,29.6,44,44C29.7,58.3,18.6,75,11,93.6c-7.3,18-11,37-11,56.5s3.7,38.5,11,56.4
		c7.5,18.6,18.6,35.3,33,49.6c14.3,14.3,31,25.4,49.6,33c18,7.3,37,11,56.4,11s38.5-3.7,56.4-11c18.6-7.5,35.3-18.6,49.6-33
		c14.3-14.3,25.4-31,33-49.6c7.3-18,11-37,11-56.4c0-19.5-3.7-38.5-11-56.5C281.5,75,270.4,58.3,256,44c-14.3-14.3-31-25.4-49.6-33
		c-18-7.3-37-11-56.4-11S111.5,3.7,93.6,11z M37.5,213.2c-7.2-4.5-13.9-9.8-19.8-15.9c-9-25.3-10.5-52.8-4.6-78.8
		c2.8-5.5,6-10.8,9.6-15.9c1.1-1.6,2.1-3.2,3.3-4.7l33.9,20c0,0.3,0,0.6,0,0.8c-0.1,18.2,1.8,36.3,5.4,54.1c0,0.1,0,0.1,0,0.2
		L39,214.2C38.6,213.8,38,213.5,37.5,213.2z M138.1,282.7c5.8,3,11.8,5.5,18,7.5c-26.2,1.1-52.7-5-76.1-18.4l56.7,10.1
		C137.2,282.2,137.7,282.5,138.1,282.7z M137.9,272.5l-67-11.9C63.1,251,56.1,241,50,230.2c-1.5-2.7-3.3-5.4-4.6-8.2l26.2-41.1
		c0.6,0.1,1.2,0.3,2,0.5c16.4,4.4,33.1,7.5,49.9,10c1,0.1,1.8,0.3,2.5,0.3l31.4,54.4c-5.5,7.7-11,15.3-16.6,22.8
		C140,270.1,139,271.3,137.9,272.5z M249.3,249.3c-5.3,5.3-11,10.1-16.9,14.4c-1-7.9-2.7-15.5-5.1-23.1l33.5-62.6
		c9.2-4.2,18.2-9,26.4-14.9c1.1-0.8,2-1.6,2.7-2.6C287.6,193,274,224.7,249.3,249.3z M247.9,168.2c1.2,2.4,2.5,4.8,3.7,7.2
		l-32.4,60.4c-0.2,0-0.4,0.1-0.6,0.1c-17.5,3.3-35.2,5-53,5.1l-32.3-55.9c5-9.3,10-18.7,15-28.1c3.4-6.4,6.7-12.8,10-19.2l66.9-6.9
		C233.3,143,241.1,155.3,247.9,168.2z M234.3,96.5c-3.2,8.4-6.6,16.7-10,25l-65.2,6.7c-0.8-1-1.6-2-2.4-3
		c-7.7-8.7-15.4-17.4-23.2-26.1c0.1-0.1,0.1-0.2,0.2-0.2c-3.1-3.1-6.3-6.2-9.4-9.4l18.1-54.6c1.3-0.3,2.5-0.6,3.8-0.7
		c9.9-1,19.7-2.1,29.6-2.7c6.1-0.3,12.1-0.5,18.3-0.1L239,82C237.6,86.8,236.1,91.7,234.3,96.5z M249.3,50.7
		c12.4,12.4,22,26.5,28.8,41.6c-8.4-5.8-17.4-10.5-26.8-14.4c-1.5-0.6-3-1.1-4.5-1.7l-44.2-49.8c0.3-2.2,0.5-4.3,0.5-6.5
		C220,26.8,235.7,37,249.3,50.7z M105,17.3c0.2,0.1,0.3,0.2,0.4,0.3c10.1,3.5,19.3,8.6,28,14.7l-17,51.1c-0.1,0-0.2,0-0.3,0.1
		c-3.5,1.4-7,2.7-10.4,4.3c-14.1,6.4-27.8,13.5-40.7,22L31.5,89.9c0-1,0.2-2.1,0.6-3.1c2.2-6,4.5-12,7-17.9c2-4.5,4.2-8.9,6.6-13.1
		c1.6-1.8,3.2-3.5,4.9-5.2c15.9-15.9,34.7-27.2,54.7-33.8C105.2,17,105.1,17.2,105,17.3z"/>
</g>
</svg>
