<?xml version="1.0" encoding="utf-8"?>
<!-- Generator: Adobe Illustrator 25.0.1, SVG Export Plug-In . SVG Version: 6.00 Build 0)  -->
<svg version="1.1" id="Capa_1" xmlns="http://www.w3.org/2000/svg" xmlns:xlink="http://www.w3.org/1999/xlink" x="0px" y="0px"
	 viewBox="0 0 300 300" style="enable-background:new 0 0 300 300;" xml:space="preserve">
<style type="text/css">
	.st0{fill:#F0BDFF;}
</style>
<g>
	<g>
		<path class="st0" d="M298.3,109.5c-1.5-1.8-3.7-2.8-6-2.8h-29.2c-7.2-19-16.6-37.6-27.3-44.7C198.9,37.7,101,37.7,64.1,62
			c-10.7,7-20,25.7-27.3,44.7H7.7c-2.3,0-4.5,1-6,2.8s-2,4.1-1.6,6.4l4.3,21c0.7,3.6,3.9,6.1,7.5,6.1h8.6
			c-8.3,9.6-12.4,21.8-12.5,33.9c-0.1,15,5.6,28.5,16,38.1c0.1,0.1,0.2,0.2,0.3,0.3v29.3c0,6.4,5.2,11.5,11.5,11.5H63
			c6.4,0,11.5-5.2,11.5-11.5v-11.8h150.9v11.8c0,6.4,5.2,11.5,11.5,11.5h26.9c6.3,0,11.5-5.2,11.5-11.5v-28.7
			c11-10.1,16.3-24,16.4-37.9c0-12.6-4.2-25.1-13-35h9.2c3.6,0,6.8-2.6,7.5-6.1l4.3-20.9C300.3,113.7,299.7,111.3,298.3,109.5z
			 M76.8,81.3c29.4-19.4,117-19.4,146.4,0c5.7,3.7,13.1,18.9,19.8,37.5H57C63.7,100.2,71.1,85.1,76.8,81.3z M42.3,179.8
			c0-12.5,10.2-22.7,22.7-22.7s22.7,10.1,22.7,22.7c0,12.5-10.1,22.7-22.7,22.7C52.5,202.5,42.3,192.3,42.3,179.8z M235.3,202.5
			c-12.5,0-22.7-10.1-22.7-22.7c0-12.5,10.2-22.7,22.7-22.7s22.7,10.1,22.7,22.7C258,192.3,247.8,202.5,235.3,202.5z"/>
	</g>
</g>
</svg>
