<?xml version="1.0" encoding="utf-8"?>
<!-- Generator: Adobe Illustrator 25.0.1, SVG Export Plug-In . SVG Version: 6.00 Build 0)  -->
<svg version="1.1" id="Capa_1" xmlns="http://www.w3.org/2000/svg" xmlns:xlink="http://www.w3.org/1999/xlink" x="0px" y="0px"
	 viewBox="0 0 300 300" style="enable-background:new 0 0 300 300;" xml:space="preserve">
<style type="text/css">
	.st0{fill:#343BAA;}
</style>
<path class="st0" d="M299.6,90.3c-0.6-1.6-1.9-2.9-3.4-3.5L269.5,76c-1.7-8.6-8.2-15.5-16.6-17.7l-1.4-16.6
	c-0.2-2.4-1.8-4.5-4.1-5.3s-4.9-0.1-6.5,1.7l-6.8,7.5l-4.2-14.8c-0.7-2.6-3-4.3-5.7-4.4s-5.1,1.5-6,4l-31.6,87.2
	c0,0-117,5.5-117.1,5.5c-24,1.4-46.7-11.4-57.9-32.7c-1.6-3-5.3-4.1-8.3-2.6c-3,1.6-4.1,5.3-2.6,8.3c10,19.1,27.7,32.5,48,37.3
	c-2.1,2.5-6.6,8.5-9.3,18.1c-2.9,10.4-3.9,27,6.7,48l-17.2,23.3c-1,1.4-1.4,3.1-1.1,4.7l7.6,40.9c0.5,2.9,3.1,5,6,5h7.7
	c1.8,0,3.5-0.8,4.7-2.2c1.2-1.4,1.6-3.2,1.3-5l-4.8-26.3l50.6-38c0.1-0.1-0.1,0.1,0,0c4.8-4.1,8.3-8.5,10.9-13.1
	c26.4,4.6,62.4,10.9,85.6,14.6l10.2,64.8c0.5,3,3,5.2,6,5.2h6.3c3.4,0,6.1-2.7,6.1-6.1v-65.8c5.7-3.9,7.8-10.5,9.2-16.9
	c0-0.2,13.6-62.8,13.6-62.8c2.6,0.4,5.1,0.6,7.7,0.6c17.9,0,34.3-10.5,42.8-27.4C300.1,93.6,300.2,91.9,299.6,90.3z"/>
</svg>
