<?xml version="1.0" encoding="utf-8"?>
<!-- Generator: Adobe Illustrator 25.0.1, SVG Export Plug-In . SVG Version: 6.00 Build 0)  -->
<svg version="1.1" id="Capa_1" xmlns="http://www.w3.org/2000/svg" xmlns:xlink="http://www.w3.org/1999/xlink" x="0px" y="0px"
	 viewBox="0 0 300 300" style="enable-background:new 0 0 300 300;" xml:space="preserve">
<style type="text/css">
	.st0{fill:#F0BDFF;}
</style>
<g>
	<g>
		<path class="st0" d="M232.5,59.8c-10.5-17.9-22.6-32.2-35.9-42.5C181.7,5.8,166,0,150,0s-31.7,5.8-46.6,17.3
			C90.1,27.6,78.1,41.9,67.5,59.8c-20.2,34.3-32.2,78.6-32.2,118.4c0,19.9,3,38,8.9,53.6c5.7,15.1,14,28,24.8,38.4
			c20.1,19.4,48.1,29.7,81,29.7s60.9-10.3,81-29.7c10.8-10.4,19.2-23.3,24.8-38.4c5.9-15.7,8.9-33.7,8.9-53.6
			C264.7,138.4,252.6,94.2,232.5,59.8z"/>
	</g>
</g>
</svg>
