<?xml version="1.0" encoding="utf-8"?>
<!-- Generator: Adobe Illustrator 25.0.1, SVG Export Plug-In . SVG Version: 6.00 Build 0)  -->
<svg version="1.1" id="Capa_1" xmlns="http://www.w3.org/2000/svg" xmlns:xlink="http://www.w3.org/1999/xlink" x="0px" y="0px"
	 viewBox="0 0 300 300" style="enable-background:new 0 0 300 300;" xml:space="preserve">
<style type="text/css">
	.st0{fill:#FFFFFF;}
</style>
<path class="st0" d="M293.1,237.3c-2.6-0.3-5,0.8-6.5,2.7l-10.1-1.3l14.6-14.4c2.4,0.6,5,0,6.8-1.9c2.8-2.8,2.8-7.3,0-10.1
	s-7.3-2.8-10.1,0c-1.8,1.8-2.4,4.4-1.8,6.8L273,232l4.4-16.5c2.3-0.7,4.3-2.4,4.9-4.9c1-3.8-1.3-7.7-5.1-8.7c-3.8-1-7.7,1.3-8.7,5.1
	c-0.7,2.5,0.2,5,1.9,6.7l-4.7,18l-5.3-19.3c1.7-1.7,2.5-4.2,1.8-6.7c-1.1-3.8-5-6-8.8-5c-6.8,1.9-7.2,11.6,0,13.6l4.2,15.2
	c-3.2,1.4-25.2,10.9-27.4,11.9c1.5-6.7,1.2-5.3,6.7-29.6c0,0.1,0.3-2.1,0.4-3.3c0.4-13.3-11.9-25.5-28.5-19.8
	c-0.8,0.3,0.1-0.2-17,8.8c4-15.7,6.7-32.4,8-48.2c18.4,11.2,25.8-1.2,27.9-6.6c0.3-0.7,22.5-67.2,22.5-67.2l15.2-15.3
	c2.3,0.6,4.9,0.1,6.7-1.8c2.8-2.8,2.8-7.3,0-10.1s-7.3-2.8-10.1,0c-1.8,1.8-2.3,4.4-1.7,6.7L247,68.3l4.4-16.9
	c2.3-0.7,4.3-2.4,4.9-4.9c1-3.8-1.3-7.7-5.1-8.7s-7.7,1.3-8.7,5.1c-0.7,2.5,0.2,5,1.9,6.7l-4.7,18l-5.3-19.3
	c1.7-1.8,2.5-4.2,1.8-6.7c-1.1-3.8-5-6-8.8-5s-6,5-5,8.8c0.7,2.5,2.7,4.2,5,4.8l4.9,17.8c0,0-12,23.4-23.9,46.7
	c-1.6-1.6-3.2-3.2-4.6-4.6c-1.9-2-3.7-3.7-5.3-5.3c-1.9-11.4-5.1-21-9.3-28.8c1.7-2.3,2.7-5.2,2.7-8.2c0-7.9-6.4-14.2-14.2-14.2
	c-0.8,0-1.5,0.1-2.2,0.2l-8.1-8.1c0-0.5,0.1-0.9,0.1-1.4c0-9.6-7.8-17.4-17.4-17.4c-9.6,0-17.4,7.8-17.4,17.4c0,0.5,0.1,1,0.1,1.4
	l-8.1,8.1c-0.7-0.1-1.5-0.2-2.2-0.2c-7.9,0-14.2,6.4-14.2,14.2c0,3.1,1,5.9,2.7,8.2c-4.2,7.8-7.4,17.4-9.3,28.8
	c-1.6,1.6-3.4,3.4-5.3,5.3c-1.4,1.4-3,3-4.6,4.6C79.9,91.4,67.9,67.9,67.9,67.9l4.9-17.8c2.3-0.7,4.3-2.4,5-4.8c1-3.8-1.2-7.7-5-8.8
	c-3.8-1-7.7,1.2-8.8,5c-0.7,2.5,0.1,5,1.8,6.7l-5.3,19.3l-4.7-18c1.7-1.7,2.5-4.2,1.9-6.7c-1-3.8-4.9-6.1-8.7-5.1s-6.1,4.9-5.1,8.7
	c0.7,2.5,2.6,4.2,4.9,4.9l4.4,16.9L39.9,55c0.6-2.3,0.1-4.9-1.7-6.7c-2.8-2.8-7.3-2.8-10.1,0s-2.8,7.3,0,10.1
	c1.8,1.8,4.4,2.3,6.7,1.8L50,75.4c0,0,22.2,66.4,22.5,67.2c2,5.4,9.4,17.8,27.9,6.6c1.3,15.8,4,32.5,8,48.2c-17.1-9-16.2-8.5-17-8.8
	c-16.6-5.7-28.9,6.6-28.5,19.8c0,1.1,0.3,3.4,0.4,3.3c5.6,24.3,5.2,22.9,6.7,29.6c-2.3-1-24.2-10.5-27.4-11.9l4.2-15.2
	c7.2-2,6.8-11.7,0-13.6c-3.8-1-7.7,1.2-8.8,5c-0.7,2.5,0.1,5,1.8,6.7l-5.3,19.3l-4.7-18c1.7-1.7,2.5-4.2,1.9-6.7
	c-1-3.8-4.9-6.1-8.7-5.1s-6.1,4.9-5.1,8.7c0.7,2.5,2.6,4.2,4.9,4.9l4.4,16.5l-13-12.9c0.6-2.3,0-4.9-1.8-6.8
	c-2.8-2.8-7.3-2.8-10.1,0s-2.8,7.3,0,10.1c1.9,1.9,4.5,2.5,6.8,1.9l14.6,14.4L13.4,240c-1.5-1.9-3.9-3-6.5-2.7
	c-3.9,0.5-6.7,4.1-6.2,7.9c0.5,3.9,4,6.7,8,6.2c2.6-0.3,4.7-2,5.6-4.2l15.8-2c1.7,0.9,47.2,26.3,47.2,26.3c4.9,2.7,11,2.5,15.7-0.7
	s7.2-8.7,6.4-14.3c-1.9-14.3-3.6-27.8-3.6-27.8c0.9,0.6,25.8,17.7,38.4,26.3c4.9,5.4,10.2,8.6,15.7,8.6s10.8-3.2,15.7-8.6
	c12.6-8.6,37.5-25.7,38.4-26.3c0,0.1-1.8,13.5-3.6,27.8c-0.7,5.6,1.8,11.1,6.4,14.3c4.7,3.2,10.7,3.4,15.7,0.7
	c0,0,45.6-25.3,47.2-26.3l15.8,2c1,2.2,3.1,3.9,5.6,4.2c3.9,0.5,7.5-2.3,8-6.2C299.8,241.3,297,237.8,293.1,237.3z"/>
</svg>
